<svg width="49" height="50" xmlns="http://www.w3.org/2000/svg" xmlns:xlink="http://www.w3.org/1999/xlink" overflow="hidden"><defs><clipPath id="clip0"><rect x="640" y="577" width="49" height="50"/></clipPath></defs><g clip-path="url(#clip0)" transform="translate(-640 -577)"><path d="M688.622 622.597 678.589 612.218C681.395 608.39 682.888 603.757 682.846 599.011 682.845 586.748 673.42 577 661.562 577 649.705 577 640.279 586.748 640.279 599.013 640.279 611.278 649.703 621.025 661.562 621.025 666.196 621.053 670.7 619.5 674.332 616.623L684.366 627ZM646.36 599.013C646.36 590.208 653.05 583.29 661.562 583.29 670.075 583.29 676.765 590.208 676.765 599.013 676.765 607.817 670.075 614.736 661.562 614.736 653.05 614.736 646.36 607.817 646.36 599.013Z" fill="#F8CF95"/></g></svg>